<svg width="496" height="183" viewBox="0 0 496 183" fill="none" xmlns="http://www.w3.org/2000/svg">
<g clip-path="url(#clip0)">
<path d="M204.7 122.2C202.2 117.9 199.6 113.5 197.1 109.2C196.9 108.9 196.8 108.6 196.9 108.1C199.4 100.5 201.9 92.8 204.4 85.2C204.4 85.1 204.5 84.9 204.6 84.6C207.5 90.3 210.3 95.9 213.2 101.6C213.4 101.2 213.5 100.9 213.6 100.6C217.5 88.6 221.4 76.7 225.3 64.7C225.5 64.2 225.7 64 226.2 64.1C229.7 64.1 233.2 64.1 236.8 64.1C237.4 64.1 237.6 64.3 237.8 64.8C241.4 76.7 245 88.5 248.6 100.4C248.7 100.7 248.8 101.1 249 101.6C249.5 100.6 249.9 99.6 250.2 98.7C255.1 87.3 259.9 76 264.8 64.6C264.9 64.3 265 64.1 265.4 64.1C270.4 64.1 275.4 64.1 280.3 64.1C280.3 64.1 280.4 64.1 280.5 64.1C279.9 65.5 279.4 66.8 278.9 68.2C271.7 85.9 264.6 103.7 257.4 121.4C257.3 121.6 257.1 121.8 257.2 122.1C252 122.1 246.8 122.1 241.6 122.1C241.7 121.9 241.6 121.6 241.5 121.4C241.1 120.1 240.7 118.8 240.3 117.5C237.3 108 234.4 98.6 231.4 89.1C231.4 88.9 231.4 88.7 231.1 88.6C227.4 99.7 223.8 110.9 220.1 122C214.9 122.2 209.8 122.2 204.7 122.2Z" fill="#35849A"/>
<path d="M157.1 122.2C157.1 103.1 157.1 84 157.1 64.9C157.1 64.3 157.2 64.1 157.9 64.1C166 64.1 174.1 64.1 182.2 64.1C186.7 64.1 190.9 65.1 194.5 67.9C196 69 197.3 70.4 198.4 72C198.6 72.3 198.6 72.5 198.5 72.8C195.5 82.1 192.4 91.5 189.4 100.8C189.3 101.2 189.1 101.3 188.7 101.4C186.6 101.9 184.4 102.2 182.2 102.2C178.9 102.2 175.7 102.2 172.4 102.2C172 102.2 171.9 102.2 171.9 102.7C171.9 109.1 171.9 115.6 171.9 122V122.1C167 122.2 162 122.2 157.1 122.2ZM171.9 83.1C171.9 85.5 171.9 87.9 171.9 90.4C171.9 90.9 172 91 172.5 91C173.7 91 175 91 176.2 91C177.9 91 179.6 91 181.3 90.6C182.8 90.2 184.2 89.7 185.1 88.4C187 85.7 187.2 82.7 186 79.7C185 77 182.7 75.9 180 75.6C177.5 75.3 175 75.5 172.5 75.4C172 75.4 171.9 75.6 171.9 76C171.9 78.4 171.9 80.8 171.9 83.1Z" fill="#3E3E3E"/>
<path d="M295.3 122.2C294.8 120.5 294.1 118.8 293.5 117.1C292.9 115.5 292.4 114 291.8 112.4C291.6 112 291.4 111.8 291 111.8C284.5 111.8 278 111.8 271.4 111.8C270.7 111.8 270.7 111.8 270.9 111.1C272.2 107.8 273.6 104.4 274.9 101.1C275.1 100.7 275.3 100.5 275.8 100.5C279.7 100.5 283.5 100.5 287.4 100.5C287.9 100.5 288 100.4 287.9 99.9C286 94.6 284.1 89.2 282.2 83.9C282.1 83.6 282.1 83.3 282.2 83C284.7 76.8 287.1 70.6 289.6 64.4C289.6 64.3 289.7 64.3 289.7 64.2C290 64.3 289.9 64.5 290 64.7C297 83.2 304 101.8 311 120.3C311.2 120.8 311.3 121.4 311.7 121.9C311.7 122 311.8 122.2 311.5 122.2C311 122.2 310.5 122.2 310 122.2C305 122.2 300.2 122.2 295.3 122.2Z" fill="#3E3E3E"/>
<path d="M84.5 83.2V82.8L93.9 70.5H85.2V68.6H97.1V69.1L87.7 81.3H96.6V83.1H84.5V83.2Z" fill="#808285"/>
<path d="M106.3 83.6C104.9 83.6 103.7 83.3 102.6 82.7C101.6 82.1 100.8 81.2 100.2 80C99.6 78.9 99.3 77.5 99.3 76C99.3 74.4 99.6 73 100.1 71.9C100.7 70.7 101.5 69.8 102.5 69.2C103.5 68.6 104.7 68.3 106.1 68.3C107.5 68.3 108.8 68.6 109.8 69.3C110.8 70 111.6 70.9 112.1 72.1C112.6 73.3 112.9 74.8 112.8 76.5H110.8V75.8C110.8 73.9 110.4 72.5 109.6 71.5C108.8 70.5 107.7 70.1 106.2 70.1C104.6 70.1 103.4 70.6 102.6 71.6C101.8 72.6 101.4 74.1 101.4 75.9C101.4 77.7 101.8 79.2 102.6 80.2C103.4 81.2 104.6 81.7 106.1 81.7C107.1 81.7 108 81.5 108.8 81C109.6 80.5 110.2 79.8 110.6 78.9L112.4 79.6C111.8 80.9 111 81.8 109.9 82.5C108.9 83.2 107.7 83.6 106.3 83.6ZM100.7 76.4V74.7H111.8V76.4H100.7Z" fill="#808285"/>
<path d="M115.9 83.2V68.6H117.7V72.1L117.3 71.6C117.5 71.2 117.7 70.8 117.9 70.4C118.2 70 118.4 69.7 118.7 69.5C119.1 69.2 119.5 68.9 120 68.7C120.5 68.5 121 68.4 121.5 68.4C122 68.4 122.5 68.4 122.9 68.5V70.4C122.4 70.3 121.8 70.2 121.2 70.3C120.6 70.4 120 70.6 119.5 71.1C119 71.5 118.7 71.9 118.4 72.5C118.2 73 118 73.6 118 74.2C117.9 74.8 117.9 75.4 117.9 75.9V83.2H115.9Z" fill="#808285"/>
<path d="M131.6 83.6C130.2 83.6 128.9 83.3 127.9 82.6C126.9 81.9 126.1 81 125.5 79.9C124.9 78.8 124.7 77.4 124.7 75.9C124.7 74.4 125 73 125.5 71.9C126.1 70.8 126.8 69.9 127.9 69.2C128.9 68.6 130.2 68.2 131.6 68.2C133.1 68.2 134.3 68.5 135.3 69.2C136.3 69.9 137.1 70.8 137.7 71.9C138.2 73.1 138.5 74.4 138.5 75.9C138.5 77.4 138.2 78.8 137.7 79.9C137.2 81 136.4 82 135.3 82.6C134.2 83.2 133.1 83.6 131.6 83.6ZM131.6 81.7C133.2 81.7 134.4 81.2 135.2 80.1C136 79 136.4 77.6 136.4 75.9C136.4 74.1 136 72.7 135.2 71.7C134.4 70.7 133.2 70.1 131.6 70.1C130.5 70.1 129.6 70.3 128.9 70.8C128.2 71.3 127.7 72 127.3 72.8C126.9 73.6 126.8 74.7 126.8 75.8C126.8 77.6 127.2 79 128 80C128.9 81.1 130.1 81.7 131.6 81.7Z" fill="#808285"/>
<path d="M68.5 115.9C67 115.9 65.8 115.6 64.8 114.9C63.8 114.2 63 113.3 62.5 112.2C62 111 61.7 109.7 61.7 108.2C61.7 106.7 62 105.3 62.5 104.2C63 103.1 63.8 102.1 64.8 101.5C65.8 100.9 67 100.5 68.5 100.5C70 100.5 71.3 100.9 72.3 101.6C73.4 102.3 74.1 103.3 74.5 104.5L72.6 105.1C72.3 104.2 71.7 103.6 71 103.1C70.3 102.6 69.4 102.4 68.5 102.4C67.4 102.4 66.5 102.6 65.8 103.1C65.1 103.6 64.6 104.3 64.2 105.1C63.9 106 63.7 107 63.7 108.1C63.7 109.8 64.1 111.2 64.9 112.3C65.8 113.5 67 114 68.5 114C69.5 114 70.3 113.8 71 113.3C71.7 112.8 72.2 112.2 72.6 111.3L74.6 111.9C74.1 113.2 73.3 114.2 72.2 114.9C71.2 115.5 70 115.9 68.5 115.9Z" fill="#808285"/>
<path d="M83.5 115.9C82.1 115.9 80.8 115.6 79.8 114.9C78.8 114.2 78 113.3 77.4 112.2C76.8 111.1 76.6 109.7 76.6 108.2C76.6 106.7 76.9 105.3 77.4 104.2C78 103.1 78.7 102.2 79.8 101.5C80.8 100.9 82.1 100.5 83.5 100.5C85 100.5 86.2 100.8 87.2 101.5C88.2 102.2 89 103.1 89.6 104.2C90.1 105.4 90.4 106.7 90.4 108.2C90.4 109.7 90.1 111.1 89.6 112.2C89.1 113.3 88.3 114.3 87.2 114.9C86.1 115.5 84.9 115.9 83.5 115.9ZM83.5 114C85.1 114 86.3 113.5 87.1 112.4C87.9 111.3 88.3 109.9 88.3 108.2C88.3 106.4 87.9 105 87.1 104C86.3 103 85.1 102.4 83.5 102.4C82.4 102.4 81.5 102.6 80.8 103.1C80.1 103.6 79.6 104.3 79.2 105.1C78.8 105.9 78.7 107 78.7 108.1C78.7 109.9 79.1 111.3 79.9 112.3C80.7 113.5 81.9 114 83.5 114Z" fill="#808285"/>
<path d="M93.3 115.5V100.9H95.1V104.5H95.3V115.5H93.3ZM103.8 115.5V108.1C103.8 107.3 103.7 106.5 103.6 105.9C103.5 105.3 103.2 104.6 102.9 104.1C102.6 103.6 102.1 103.2 101.6 102.9C101.1 102.6 100.4 102.5 99.7 102.5C99 102.5 98.4 102.6 97.8 102.9C97.3 103.1 96.8 103.5 96.5 103.9C96.1 104.4 95.9 104.9 95.7 105.5C95.5 106.1 95.4 106.9 95.4 107.7L94 107.4C94 105.9 94.3 104.7 94.8 103.6C95.3 102.6 96 101.8 97 101.3C97.9 100.8 99 100.5 100.2 100.5C101.1 100.5 101.8 100.6 102.5 100.9C103.2 101.2 103.7 101.5 104.2 102C104.7 102.5 105 103 105.3 103.6C105.6 104.2 105.8 104.8 105.9 105.5C106 106.2 106.1 106.8 106.1 107.5V115.5H103.8V115.5Z" fill="#808285"/>
<path d="M108.2 102.6V100.9H116.7V102.6H108.2ZM110.8 115.5V99.9C110.8 99.5 110.8 99.2 110.9 98.8C111 98.4 111 98.1 111.1 97.7C111.2 97.3 111.4 97.1 111.7 96.8C112 96.5 112.3 96.2 112.7 96.1C113.1 96 113.4 95.9 113.8 95.8C114.2 95.7 114.6 95.7 114.9 95.7H116.8V97.4H115C114.2 97.4 113.7 97.6 113.3 98C112.9 98.4 112.7 98.9 112.7 99.7V115.5H110.8ZM119.5 98.2V96H121.5V98.2H119.5ZM119.5 115.5V100.9H121.5V115.4H119.5V115.5Z" fill="#808285"/>
<path d="M131.2 115.9C129.8 115.9 128.7 115.6 127.7 114.9C126.7 114.2 126 113.3 125.5 112.1C125 110.9 124.7 109.6 124.7 108.2C124.7 106.8 125 105.5 125.5 104.3C126 103.1 126.7 102.2 127.7 101.6C128.7 100.9 129.8 100.6 131.1 100.6C132.5 100.6 133.6 100.9 134.5 101.6C135.4 102.3 136.1 103.2 136.6 104.3C137.1 105.4 137.3 106.8 137.3 108.2C137.3 109.6 137.1 110.9 136.6 112.1C136.1 113.3 135.4 114.2 134.5 114.9C133.7 115.5 132.5 115.9 131.2 115.9ZM131.3 122.3C130.6 122.3 129.8 122.2 129.1 122C128.4 121.8 127.7 121.4 127.1 121C126.5 120.5 126 119.9 125.6 119.2L127.4 118.2C127.8 119 128.4 119.6 129.1 119.9C129.8 120.3 130.6 120.4 131.3 120.4C132.4 120.4 133.2 120.2 133.9 119.8C134.6 119.4 135 118.8 135.3 118.1C135.6 117.3 135.7 116.4 135.7 115.2V111.3H136V100.9H137.8V115.2C137.8 115.6 137.8 116 137.8 116.4C137.8 116.8 137.7 117.2 137.7 117.5C137.5 118.6 137.2 119.5 136.6 120.2C136.1 120.9 135.4 121.4 134.5 121.8C133.5 122.2 132.5 122.3 131.3 122.3ZM131.4 114C132.4 114 133.3 113.7 134 113.2C134.7 112.7 135.2 112 135.5 111.1C135.8 110.2 136 109.2 136 108.1C136 107 135.8 106 135.5 105.1C135.2 104.2 134.7 103.5 134 103C133.3 102.5 132.5 102.3 131.5 102.3C130.5 102.3 129.6 102.6 128.9 103.1C128.2 103.6 127.7 104.3 127.4 105.2C127.1 106.1 126.9 107.1 126.9 108.2C126.9 109.3 127.1 110.3 127.4 111.2C127.7 112.1 128.2 112.8 128.9 113.3C129.6 113.8 130.4 114 131.4 114Z" fill="#808285"/>
<path d="M326 88.1V86.4H334.5V88.1H326ZM328.6 100.9V85.3C328.6 84.9 328.6 84.6 328.7 84.2C328.7 83.8 328.8 83.5 328.9 83.1C329 82.8 329.2 82.5 329.5 82.2C329.8 81.9 330.1 81.6 330.5 81.5C330.8 81.4 331.2 81.3 331.6 81.2C332 81.2 332.4 81.1 332.7 81.1H334.6V82.8H332.9C332.1 82.8 331.6 83 331.2 83.4C330.8 83.8 330.6 84.3 330.6 85.1V100.9H328.6Z" fill="#939598"/>
<path d="M342.7 101.3C341.3 101.3 340 101 339 100.3C338 99.6 337.2 98.7 336.6 97.6C336.1 96.4 335.8 95.1 335.8 93.6C335.8 92.1 336.1 90.7 336.6 89.6C337.2 88.5 337.9 87.6 339 86.9C340 86.3 341.3 85.9 342.7 85.9C344.2 85.9 345.4 86.2 346.4 86.9C347.4 87.6 348.2 88.5 348.8 89.6C349.4 90.7 349.6 92.1 349.6 93.6C349.6 95.1 349.3 96.5 348.8 97.6C348.3 98.8 347.5 99.7 346.4 100.3C345.3 100.9 344.2 101.3 342.7 101.3ZM342.7 99.5C344.3 99.5 345.5 99 346.3 97.9C347.1 96.8 347.5 95.4 347.5 93.7C347.5 91.9 347.1 90.5 346.3 89.5C345.5 88.5 344.3 87.9 342.7 87.9C341.6 87.9 340.7 88.1 340 88.6C339.3 89.1 338.8 89.8 338.4 90.6C338 91.4 337.9 92.5 337.9 93.6C337.9 95.4 338.3 96.8 339.1 97.8C340 98.9 341.2 99.5 342.7 99.5Z" fill="#939598"/>
<path d="M352.6 100.9V86.4H354.4V89.9L354.1 89.4C354.3 89 354.5 88.6 354.7 88.2C355 87.8 355.2 87.5 355.5 87.3C355.9 87 356.3 86.7 356.8 86.5C357.3 86.3 357.8 86.2 358.3 86.2C358.8 86.2 359.3 86.2 359.7 86.3V88.2C359.2 88.1 358.6 88 358 88.1C357.4 88.2 356.8 88.4 356.3 88.9C355.8 89.3 355.5 89.7 355.2 90.3C355 90.8 354.8 91.4 354.7 92C354.6 92.6 354.6 93.2 354.6 93.7V101H352.6V100.9Z" fill="#939598"/>
<path d="M372.6 100.9L365.9 81.5H368L373.9 98.6L379.9 81.5H382L375.3 100.9H372.6Z" fill="#58595B"/>
<path d="M384.2 83.6V81.4H386.2V83.6H384.2ZM384.2 100.9V86.4H386.2V100.9H384.2Z" fill="#58595B"/>
<path d="M388.6 88.1V86.4H398.1V88.1H388.6ZM398.1 100.9C397.3 101.1 396.5 101.1 395.7 101.1C394.9 101.1 394.2 100.9 393.6 100.6C393 100.3 392.5 99.8 392.2 99.2C391.9 98.7 391.8 98.1 391.8 97.6C391.8 97 391.8 96.4 391.8 95.7V82.4H393.8V95.6C393.8 96.2 393.8 96.7 393.8 97.1C393.8 97.5 393.9 97.9 394.1 98.2C394.4 98.8 394.9 99.2 395.6 99.3C396.3 99.4 397.2 99.4 398.2 99.2V100.9H398.1Z" fill="#58595B"/>
<path d="M407.2 101.3C405.8 101.3 404.6 101 403.5 100.4C402.5 99.8 401.7 98.9 401.1 97.7C400.5 96.6 400.2 95.2 400.2 93.7C400.2 92.1 400.5 90.7 401 89.6C401.6 88.4 402.4 87.5 403.4 86.9C404.4 86.3 405.6 86 407 86C408.4 86 409.7 86.3 410.7 87C411.7 87.7 412.5 88.6 413 89.8C413.5 91 413.8 92.5 413.7 94.2H411.7V93.5C411.7 91.6 411.3 90.2 410.5 89.2C409.7 88.2 408.6 87.8 407.1 87.8C405.5 87.8 404.3 88.3 403.5 89.3C402.7 90.3 402.3 91.8 402.3 93.6C402.3 95.4 402.7 96.9 403.5 97.9C404.3 98.9 405.5 99.4 407 99.4C408 99.4 409 99.2 409.7 98.7C410.4 98.2 411.1 97.5 411.5 96.6L413.3 97.3C412.7 98.6 411.9 99.5 410.8 100.2C409.7 100.9 408.6 101.3 407.2 101.3ZM401.6 94.2V92.5H412.7V94.2H401.6Z" fill="#58595B"/>
<path d="M427.5 94.7H421L430.1 76.5V86.9H436.6L427.5 105.1V94.7Z" fill="#F7D94B"/>
</g>
<defs>
<clipPath id="clip0">
<rect width="382.6" height="62.3" fill="white" transform="translate(61 60)"/>
</clipPath>
</defs>
</svg>
