<?xml version="1.0" encoding="UTF-8"?>
<svg fill="none" version="1.1" viewBox="0 0 410 404" xmlns="http://www.w3.org/2000/svg" xmlns:cc="http://creativecommons.org/ns#" xmlns:dc="http://purl.org/dc/elements/1.1/" xmlns:rdf="http://www.w3.org/1999/02/22-rdf-syntax-ns#">
    <metadata>
        <rdf:RDF>
            <cc:Work rdf:about="">
                <dc:format>image/svg+xml</dc:format>
                <dc:type rdf:resource="http://purl.org/dc/dcmitype/StillImage"/>
                <dc:title/>
            </cc:Work>
        </rdf:RDF>
    </metadata>
    <g transform="matrix(.18288 0 0 .20215 26.512 127.72)" stroke-linejoin="round" stroke-width=".2">
        <path d="m1436.6 603.3 56.39-142.6h162.82l-77.27-216.32 96.64-244.39 276.8 734.93h-204.13l-47.3-131.63z" fill="#3e3e3e"/>
        <path d="m1262.5 734.94 296.32-734.93-196.45 9.7657e-4 -202.7 474.93-144.14-474.93h-151l-154.77 474.93-109.15-216.42-98.773 304.3 100.28 172.12h193.33l139.86-425.91 133.35 425.91z" fill="#2e859c"/>
        <path d="m186.48 482.64h121c36.654 0 69.293-4.091 97.917-12.273l118.75-365.85c-6.664-10.562-14.272-20.549-22.824-29.959-44.905-49.705-110.6-74.556-197.1-74.556h-304.22v734.93h186.48zm160.17-313.56c17.54 17.653 26.309 41.276 26.309 70.871 0 29.822-7.713 53.474-23.138 70.956-16.91 19.425-48.047 29.137-93.409 29.137h-69.928v-197.44h70.442c42.277 0 72.185 8.827 89.724 26.481z" fill="#3e3e3e"/>
    </g>
</svg>
